<?xml version="1.0" standalone="no"?>
<!DOCTYPE svg PUBLIC "-//W3C//DTD SVG 20010904//EN"
 "http://www.w3.org/TR/2001/REC-SVG-20010904/DTD/svg10.dtd">
<svg version="1.0" xmlns="http://www.w3.org/2000/svg"
 width="260.000000pt" height="260.000000pt" viewBox="0 0 260.000000 260.000000"
 preserveAspectRatio="xMidYMid meet">
<metadata>
Created by potrace 1.11, written by Peter Selinger 2001-2013
</metadata>
<g transform="translate(0.000000,260.000000) scale(0.100000,-0.100000)"
fill="#000000" stroke="none">
<path d="M1309 2078 c-90 -92 -262 -206 -387 -258 -85 -35 -93 -48 -43 -75 67
-36 78 -57 87 -162 4 -54 8 -251 8 -439 l1 -340 -37 -55 c-39 -56 -48 -89 -24
-89 7 0 25 -9 40 -21 14 -11 77 -33 139 -49 61 -15 158 -48 215 -74 56 -25
114 -46 130 -46 19 0 65 30 162 106 159 124 190 152 190 173 0 9 -17 36 -38
60 -51 60 -79 59 -170 -3 l-69 -47 -75 37 -75 37 -6 165 c-10 249 -8 677 3
706 5 14 17 26 26 26 9 0 56 -18 105 -40 49 -22 98 -40 110 -40 25 0 69 46
115 121 37 62 40 81 22 123 -14 30 -109 86 -263 154 -126 57 -138 59 -166 30z"/>
</g>
</svg>
